<?xml version="1.0" standalone="no"?>
<!DOCTYPE svg PUBLIC "-//W3C//DTD SVG 20010904//EN"
 "http://www.w3.org/TR/2001/REC-SVG-20010904/DTD/svg10.dtd">
<svg version="1.0" xmlns="http://www.w3.org/2000/svg"
 width="100%" height="100%" viewBox="0 0 555.000000 555.000000"
 preserveAspectRatio="xMidYMid meet">
<metadata>
Created by potrace 1.15, written by Peter Selinger 2001-2017
</metadata>
<g transform="translate(0.000000,555.000000) scale(0.100000,-0.100000)"
fill="#000000" stroke="none">
<path d="M1035 4524 l-110 -456 -85 -75 c-172 -153 -321 -336 -394 -481 -68
-134 -97 -242 -103 -377 -12 -268 75 -476 286 -685 231 -228 568 -382 976
-447 118 -18 523 -25 579 -10 l29 8 -7 -83 c-51 -626 -127 -1038 -211 -1138
-19 -23 -35 -46 -35 -52 0 -5 12 -22 28 -37 79 -80 450 -150 721 -138 180 8
268 36 346 108 25 23 55 59 67 80 21 38 23 39 77 39 138 1 335 75 508 192 82
55 232 179 279 229 82 90 158 216 197 330 48 139 57 224 57 558 0 409 11 452
150 569 221 186 339 172 632 -76 325 -275 268 -481 -182 -652 -106 -41 -142
-65 -138 -93 4 -30 56 -40 173 -33 160 9 332 57 421 117 182 123 196 427 30
655 -119 163 -342 325 -530 383 -286 88 -530 -38 -689 -355 -63 -126 -67 -152
-65 -424 2 -343 -25 -486 -134 -708 -112 -226 -329 -393 -630 -482 -55 -17
-102 -30 -104 -30 -2 0 -4 13 -4 28 0 125 -117 378 -304 657 -95 142 -206 318
-206 325 0 4 39 11 88 15 649 51 1148 331 1358 760 59 122 85 224 91 367 15
307 -89 555 -343 818 l-111 115 -89 457 c-49 252 -91 458 -94 458 -3 -1 -79
-137 -169 -303 -90 -166 -166 -304 -167 -306 -2 -2 -54 10 -116 27 -184 51
-276 63 -508 69 -235 6 -430 -4 -808 -42 -134 -14 -253 -25 -265 -25 -18 0
-53 53 -197 300 -96 165 -177 300 -180 300 -3 0 -54 -205 -115 -456z m157
-686 c-142 -69 -252 -293 -252 -508 0 -68 23 -194 47 -259 39 -106 126 -211
213 -256 50 -26 146 -31 207 -11 114 38 221 177 263 342 25 95 27 260 4 354
-32 136 -113 264 -203 322 -25 15 -41 28 -37 28 17 0 134 -61 181 -94 111 -80
268 -254 380 -423 l47 -72 -68 -88 c-86 -113 -231 -257 -312 -312 -110 -74
-148 -89 -252 -96 -94 -7 -97 -7 -222 35 -244 81 -409 217 -536 440 l-31 55
102 140 c163 224 331 378 455 415 51 15 57 10 14 -12z m1920 5 c-130 -64 -229
-233 -251 -428 -29 -256 77 -513 248 -597 65 -33 177 -32 243 0 104 51 198
187 234 337 22 92 22 258 0 350 -31 131 -106 249 -201 320 -36 26 -3 16 64
-21 95 -52 192 -135 286 -244 78 -90 215 -279 215 -295 0 -18 -120 -167 -208
-257 -96 -99 -219 -190 -305 -227 -166 -71 -500 39 -694 228 -95 93 -212 264
-200 294 2 6 58 84 124 172 159 212 272 315 403 366 57 23 86 24 42 2z"/>
</g>
</svg>
